<svg xmlns="http://www.w3.org/2000/svg" width="256" height="256"><path fill="#1976D2" fill-opacity=".016" fill-rule="evenodd" d="M0 128.004v128.004l128.25-.254 128.25-.254.254-127.75L257.008 0H0zm.485.496c0 70.4.119 99.053.265 63.672s.146-92.98 0-128S.485 58.1.485 128.5"/><path fill="#1976D2" fill-opacity=".211" fill-rule="evenodd" d="M107.5 8.563c-10.265 2.388-16.816 4.398-23.5 7.209-10.34 4.348-16.952 7.878-16.975 9.061-.014.734-.587 1.133-1.275.888s-3.49 1.18-6.228 3.167C53.726 33.093 41 45.502 41 46.948c0 .544-.628.748-1.396.453-.768-.294-2.006.324-2.75 1.375s-3.058 3.94-5.141 6.423C27.655 60.035 19 73.589 19 75.108c0 .506-.397 1.701-.883 2.656-2.42 4.755-4.953 11.274-6.31 16.236-2.788 10.191-3.183 14.082-3.242 32-.065 19.494-.064 19.503 3.203 29 1.798 5.225 3.65 10.4 4.117 11.5.466 1.1 1.41 3.35 2.098 5s1.648 3.781 2.134 4.736.883 2.252.883 2.881 1.464 3.223 3.253 5.764c1.789 2.54 3.89 5.857 4.669 7.369.779 1.513 1.79 2.75 2.247 2.75s.831.675.831 1.5.45 1.5 1 1.5 1 .579 1 1.287 2.025 3.43 4.5 6.05c2.475 2.621 4.5 5.206 4.5 5.745s.775 1.278 1.721 1.641c.947.364 2.957 1.924 4.467 3.469S52.398 219 52.966 219s1.034.513 1.034 1.14c0 1.555 3.099 3.789 5.309 3.828.995.018 1.531.482 1.191 1.032s.084 1 .941 1 1.559.473 1.559 1.051 1.575 1.709 3.5 2.513c1.925.805 3.5 1.937 3.5 2.517 0 .599.864.78 2 .419 1.46-.463 2-.18 2 1.049 0 1.192.585 1.531 2 1.161 1.353-.354 2-.03 2 1s.647 1.354 2 1c1.337-.349 2-.03 2 .963 0 1.094.725 1.334 2.75.908 1.513-.317 3.425-.135 4.25.405 1.251.82 1.168.998-.5 1.069l-2 .086 2 .793c1.143.453 2.272.371 2.634-.192.414-.644 1.629-.624 3.5.057 2.604.948 2.655 1.05.557 1.122-2.758.094-1.929 2.079.868 2.079 1.068 0 1.941-.45 1.941-1s.75-1 1.667-1c.916 0 1.37.296 1.008.658-1.041 1.041 1.373 3.342 3.506 3.342 1.066 0 1.659-.45 1.319-1-.361-.585.671-1 2.485-1 2.4 0 3.036.396 2.809 1.75-.255 1.519.63 1.766 6.706 1.869 6.256.106 6.469.051 2-.51-3.264-.411 2.018-.872 15.214-1.329 16.118-.559 21.595-1.12 27.028-2.77 7.496-2.277 9.226-4.037 10.327-10.51.659-3.871.685-3.894.806-.7.236 6.236-5.609 13.2-11.079 13.2-1.318 0-2.823.424-3.346.943-.522.518-3.425 1.11-6.45 1.315-5.057.342-4.916.387 1.75.557 4.29.109 7.25-.223 7.25-.815 0-.55 1.079-1 2.398-1s4.356-1.12 6.75-2.488c3.104-1.774 5.858-2.491 9.602-2.5 2.887-.007 5.25-.462 5.25-1.012s.888-1 1.973-1c1.662 0 6.035-2.149 11.806-5.803 1.009-.638.857-1.766-.721-5.332-3.322-7.51-3.673-14.563-1.033-20.702 2.676-6.221 9.136-12.295 14.916-14.027 2.232-.669 4.059-1.648 4.059-2.176s.675-.96 1.5-.96 1.5-.45 1.5-1-.824-1-1.831-1c-2.294 0-3.849-3.136-4.564-9.204-.476-4.044-.195-5.13 2.009-7.75 1.41-1.675 2.993-3.046 3.518-3.046 1.598 0 11.25-7.525 14.402-11.229 6.032-7.089 5.778-6.677 10.038-16.271 2.664-5.999 3.203-27.538.939-37.5-.937-4.125-1.935-8.967-2.218-10.759-.283-1.793-.914-3.507-1.403-3.809-.49-.303-.89-1.622-.89-2.932s-.45-2.66-1-3-1-1.491-1-2.559-.398-1.941-.883-1.941c-.486 0-1.136-.788-1.445-1.75-2.328-7.252-15.885-26.565-24.588-35.025C199.442 30.88 181.971 19 177.398 19c-.769 0-1.398-.45-1.398-1s-.591-1-1.313-1-3.645-1.125-6.495-2.5-6.283-2.5-7.628-2.5-2.695-.402-2.999-.894-2.243-1.138-4.309-1.436c-2.066-.297-6.006-.993-8.756-1.546-7.31-1.469-29.954-1.201-37 .439m44.89 16.864c-1.516 3.949.136 5.781 10.294 11.42 5.602 3.109 13.471 7.999 17.488 10.867 6.481 4.628 7.524 5.068 9.261 3.915 1.076-.715 2.138-1.842 2.359-2.505.906-2.719-12.923-13.192-27.465-20.799-8.829-4.619-11.068-5.162-11.937-2.898m-52.37 30.316c-5.048.444-7.02 1.658-7.02 4.32 0 2.909 1.918 3.404 11.909 3.076C115.6 62.788 119 61.843 119 59.225c0-4.104-3.858-4.812-18.98-3.482m99.537 10.48c-2.124 3.031-1.958 4.468.715 6.22 3.576 2.342 6.728.984 6.728-2.899 0-2.483-.585-3.489-2.547-4.383-3.273-1.492-3.078-1.534-4.896 1.062M156.2 68.2c-2.046 2.046-1.377 3.624 4.053 9.559 2.889 3.157 6.256 7.029 7.483 8.604 1.769 2.271 2.749 2.732 4.747 2.231 4.297-1.079 3.198-4.643-4.173-13.529-6.708-8.087-9.376-9.599-12.11-6.865M99.096 92.265c-1.322.679-3.287 2.426-4.367 3.881-1.861 2.506-1.956 4.261-1.804 33.297.088 16.859.544 31.643 1.012 32.854 1.423 3.68 4.346 6.217 8.823 7.659 3.596 1.157 4.688 1.159 7 .011 2.933-1.456 27.038-15.446 38.973-22.62 3.978-2.391 7.591-4.347 8.029-4.347 1.897 0 8.282-7.499 9.192-10.797.855-3.094.654-4.196-1.404-7.708-1.922-3.279-4.366-5.185-12.226-9.535a6189 6189 0 0 1-26.317-14.698c-17.346-9.741-21.256-10.903-26.911-7.997m-67.195 37.921c-2.506 4.682.994 31.606 6.205 47.739 4.653 14.404 15.254 33.64 21.743 39.457 1.974 1.769 2.251 1.783 4.625.227 1.389-.91 2.526-2.112 2.526-2.67 0-.559-2.767-5.131-6.15-10.162-13.91-20.688-19.615-38.718-21.525-68.027l-.57-8.75h-2.842c-1.9 0-3.231.725-4.012 2.186M222.5 191.458c5.236 2.26 7.816 2.862 7.066 1.649-.376-.609-1.531-1.107-2.566-1.107s-2.16-.45-2.5-1-1.604-.963-2.809-.918c-1.885.07-1.773.262.809 1.376m13.953 7.339c4.015 4.269 5.919 5.636 3.419 2.457-1.863-2.371-3.024-3.495-5.376-5.207-1.098-.799-.217.439 1.957 2.75m-25.024 8.528c-.28.729-.378 5.566-.219 10.75.264 8.572.471 9.445 2.29 9.651 2.466.279 17.9-8.857 18.263-10.81.16-.861-3.029-3.278-8.134-6.166-8.725-4.935-11.339-5.669-12.2-3.425m31.555 4.472.484 5.703.327-4.89c.179-2.689-.039-5.255-.485-5.703-.445-.447-.592 1.753-.326 4.89m.248 12.203c0 1.925.206 2.713.457 1.75.252-.963.252-2.537 0-3.5-.251-.963-.457-.175-.457 1.75m-153.565 2.667c-1.105 1.105-.75 5.85.533 7.133 1.777 1.777 5.258 1.456 7.173-.66 1.324-1.463 1.469-2.425.68-4.5-.81-2.13-1.652-2.64-4.362-2.64-1.847 0-3.658.3-4.024.667M234 237.5c-.685.825-.933 1.5-.551 1.5s1.369-.675 2.194-1.5 1.073-1.5.551-1.5-1.509.675-2.194 1.5m-27.473 1.834c2.29 1.548 5.473 2.805 5.473 2.16 0-.551-5.62-3.494-6.673-3.494-.425 0 .116.6 1.2 1.334M217.5 243c.34.55 1.068 1 1.618 1s.722-.45.382-1-1.068-1-1.618-1-.722.45-.382 1m-91.25 4.689c.963.252 1.75.894 1.75 1.428 0 1.486 14.252.649 14.753-.867.313-.946-1.859-1.222-8.92-1.134-5.133.064-8.546.322-7.583.573"/><path fill="#1976D2" fill-opacity=".353" fill-rule="evenodd" d="M111.5 16.559c-18.172 2.942-38.581 10.995-52.203 20.6-15.538 10.956-31.239 28.32-38.569 42.654a892 892 0 0 1-4.92 9.5c-4.194 7.901-6.813 21.024-6.788 34.013.029 15.014 4.375 35.946 7.918 38.136.584.361 1.062 1.281 1.062 2.045 0 2.165 4.776 6.793 6.376 6.179.785-.301 1.71-.266 2.055.079.345.344 1.368.735 2.273.868s2.029.926 2.498 1.763c.468.836 1.437 1.296 2.154 1.021.844-.324 1.739.957 2.543 3.639.682 2.276 1.415 3.963 1.63 3.748s-.468-3.146-1.516-6.515c-4.212-13.533-6.669-43.233-3.813-46.089 1.637-1.637 6.294-1.514 7.72.204.678.816 1.504 7.616 1.974 16.25.762 13.977.818 14.271.958 5.013.111-7.397.458-9.72 1.398-9.375.688.252 1.134.974.993 1.605-.142.631.823 1.558 2.145 2.06 1.321.503 2.67 1.505 2.998 2.228.327.723.344.302.037-.935-.316-1.277-.096-2.25.51-2.25 1.695 0 5.067 3.829 5.067 5.754 0 2.394 4.111 13.545 7.465 20.246 8.421 16.829 25.565 32.374 44.788 40.613 13.271 5.687 22.979 7.78 43.365 9.345 11.829.909 15.854 2.284 19.225 6.569 3.246 4.127 3.563 7.747 1.109 12.642-1.195 2.382-1.583 3.769-.862 3.081.72-.687 3.695-1.25 6.61-1.25s5.3-.45 5.3-1 .879-1 1.953-1c2.78 0 7.162-2.118 9.862-4.767 1.273-1.249 2.735-2.011 3.25-1.693 1.319.815 1.196.234-1.065-5.04-1.1-2.566-2-5.714-2-6.994 0-4.768-12.43-11.493-21.288-11.518-4.62-.013-12.91-1.977-16.758-3.971-1.35-.699-4.137-2.991-6.193-5.094-3.405-3.482-8.683-5.903-12.897-5.917-3.277-.012-17.516-5.338-23.364-8.741-5.722-3.329-14.34-10.265-12.755-10.265.414 0 4.802 1.767 9.753 3.926 19.945 8.699 42.442 12.211 65.522 10.227 7.414-.637 18.445-1.158 24.513-1.156l11.033.003-.966-6.99c-.916-6.626-.844-7.121 1.375-9.483 1.288-1.371 3.23-2.775 4.315-3.119 1.57-.498 1.691-.806.592-1.502-1.034-.655-.829-.879.816-.891 1.21-.008 3.404-1.132 4.876-2.496s3.071-2.238 3.552-1.941.874-.188.874-1.078.461-1.333 1.025-.985c.563.349.901.225.75-.275s1.637-3.477 3.975-6.616 4.25-6.124 4.25-6.635c0-.51.951-2.621 2.113-4.69 3.049-5.429 3.408-26.151.663-38.299-1.056-4.675-2.162-9.963-2.458-11.75-.295-1.787-.938-3.25-1.427-3.25s-.905-.787-.923-1.75c-.032-1.794-2.956-6.39-2.983-4.691-.009.517-.366.389-.795-.285-.428-.674-.591 5.761-.361 14.3.494 18.397-.878 25.783-6.953 37.426-9.77 18.728-21.31 28.387-42.583 35.644-6.486 2.212-10.099 2.738-21.543 3.135-7.685.267-13.75.086-13.75-.409 0-.488 3.938-1.896 8.75-3.129 12.835-3.289 20.532-7.525 29.05-15.99 8.804-8.749 13.504-17.759 15.661-30.026 1.268-7.217 1.26-9.247-.066-16.848-1.779-10.193-3.554-15.736-7.623-23.816-2.584-5.13-2.853-6.39-1.975-9.25 1.043-3.4.768-3.731-2.823-3.401-2.316.212-9.174-9.383-9.415-13.173-.25-3.931.343-5.916 1.546-5.172.492.304.895.344.895.088 0-.88-9.824-7.521-16.657-11.26-3.763-2.06-8.193-4.492-9.843-5.405-2.423-1.341-3-2.316-3-5.074 0-2.953.359-3.456 2.66-3.722 4.149-.48 27.717 12.341 31.858 17.329.675.814 1.703 1.479 2.285 1.479s-1.836-2.24-5.373-4.978c-6.702-5.189-24.087-14.929-30.318-16.985-1.983-.655-4.263-2.128-5.066-3.275-1.331-1.9-2.597-2.111-14.253-2.373-7.828-.175-16.286.279-21.793 1.17m72.277 38.215c-.584.701-.882 1.454-.663 1.674.766.766 7.239-1.008 7.597-2.082.509-1.525-5.624-1.164-6.934.408m-81.82.181C94.213 55.75 93 56.357 93 59.437c0 4.073 1.894 4.643 13.119 3.944 11.679-.727 14.639-2.069 12.699-5.757-2.046-3.889-3.195-4.071-16.861-2.669m96.293 6.682c0 1.762.422 2.319 1.457 1.922.801-.307 1.87-.559 2.375-.559 1.781 0 .889-1.692-1.457-2.761-2.153-.981-2.375-.85-2.375 1.398m-.791 4.43c-.363.586-.445 1.281-.183 1.543s.743-.218 1.069-1.067c.676-1.762.1-2.072-.886-.476m-42.521 3.05c-.992 1.852-.581 2.695 3.286 6.75 15.592 16.346 20.12 26.557 20.13 45.401.004 6.329.361 10.245.866 9.5 4.597-6.775 6.163-11.628 6.576-20.374.464-9.833-.85-16.105-5.096-24.326-3.007-5.821-4.73-6.394-4.165-1.384.408 3.617.387 3.651-.408.655-.461-1.739-3.716-6.542-7.232-10.675-5.429-6.379-6.88-7.525-9.61-7.589-2.299-.054-3.537.528-4.347 2.042M97.881 92.503c-5.675 3.084-6.044 5.594-5.697 38.787.312 29.804.347 30.254 2.649 33.481 2.437 3.417 7.746 6.229 11.759 6.229 1.291 0 3.823-.837 5.628-1.859 8.806-4.992 23.239-13.457 31.78-18.641 5.225-3.172 10.406-6.269 11.514-6.883 7.327-4.063 11.486-9.177 11.486-14.123 0-3.912-4.389-8.889-11.534-13.079-3.831-2.247-15.558-8.884-26.059-14.75-17.157-9.583-19.592-10.661-24-10.625-2.699.022-6.085.68-7.526 1.463m-53.802 73.08c.048 1.165.285 1.402.604.605.289-.722.253-1.585-.079-1.917s-.568.258-.525 1.312m86.734 5.1c.721.289 1.584.253 1.916-.079s-.258-.568-1.312-.525c-1.165.048-1.402.285-.604.604M212 217c0 7.442.362 11 1.118 11 2.33 0 17.826-9.562 17.826-11s-15.496-11-17.826-11c-.756 0-1.118 3.558-1.118 11"/><path fill="#1976D2" fill-opacity=".696" fill-rule="evenodd" d="M88 42c-.901.582-1.025.975-.309.985.655.008 1.469-.435 1.809-.985.767-1.242.421-1.242-1.5 0m-13.11 6.323c-7.484 3.722-12.994 7.734-20.73 15.096-6.191 5.891-15.174 17.439-17.714 22.769-1.65 3.462-1.655 3.845-.079 6.25 1.951 2.978 4.682 3.302 6.838.812.834-.963 3.346-4.9 5.583-8.75 7.077-12.18 20.548-24.472 33.97-31 4.524-2.2 8.229-4.357 8.234-4.793.004-.437-1.67-.662-3.721-.5-2.681.211-3.735-.105-3.75-1.124-.036-2.415-1.786-2.164-8.631 1.24m30.838 5.399c1.775.221 4.925.224 7 .008 2.074-.217.622-.397-3.228-.402-3.85-.004-5.548.173-3.772.394M103.5 69.394c-9.145 1.827-16.22 4.704-19.19 7.805C81.694 79.928 81.682 80 83.813 80c1.203 0 3.075.888 4.16 1.973 1.963 1.963 1.995 1.961 6.834-.47C101.358 78.213 110.245 76 116.91 76c6.134 0 5.823 1.009-.91 2.949-11.547 3.327-14.26 4.42-19.694 7.932C90.92 90.362 84.58 96.981 80.867 103 77.463 108.518 76 115.287 76 125.522c0 13.973 3.417 23.642 12.562 35.549 7.005 9.12 14.335 13.684 31.806 19.805 13.811 4.839 24.437 6.516 41.632 6.573 16.201.053 48.411-1.478 46.25-2.199-2.011-.671-1.62-10.737.5-12.859 1.667-1.669 1.655-1.723-.25-1.139-21.489 6.592-43.776 8.335-62.287 4.869-8.006-1.498-17.409-4.995-16.666-6.197.314-.508 3.011-.924 5.993-.924 32.13 0 57.349-16.982 63.41-42.699 2.664-11.306.72-29.43-4.109-38.301l-1.906-3.5.563 4c3.539 25.164 2.503 35.11-4.989 47.895-3.615 6.168-13.917 15.54-20.721 18.85-8.762 4.263-19.606 7.912-22.49 7.567-2.15-.257-1.033-1.103 6.294-4.77 12.19-6.101 22.167-15.937 24.677-24.332 4.557-15.24-.138-36.106-11.115-49.402-4.553-5.516-5.691-6.428-5.99-4.808-.468 2.525-3.063 5.5-4.799 5.5-.728 0-3.696-1.799-6.595-3.998-6.828-5.179-17.869-10.532-24.569-11.911-6.515-1.341-11.881-1.259-19.701.303m-2.857 21.603c-1.572.488-3.747 1.692-4.833 2.675-4.256 3.851-4.58 6.544-4.39 36.414.207 32.465.683 34.96 7.375 38.626 8.117 4.447 6.041 5.221 40.705-15.168 24.329-14.31 27.5-17.035 27.5-23.636 0-6.735-2.813-8.981-30.5-24.357-14.3-7.942-27.575-14.665-29.5-14.941-1.925-.275-4.786-.101-6.357.387M61.362 159.5c-.755 1.966 1.013 6.295 6.008 14.709 11.83 19.931 34.565 35.487 59.588 40.776 4.698.993 14.392 2.351 21.542 3.018s14.396 1.627 16.103 2.134c3.952 1.173 7.194 4.625 8.938 9.518.754 2.115 1.391 3.058 1.415 2.095.033-1.326.953-1.779 3.794-1.868 2.063-.066 4.088-.066 4.5 0 1.167.184.886-2.62-.626-6.239-1.765-4.226-7.759-9.155-13.568-11.159-2.506-.864-9.125-1.98-14.71-2.48s-12.56-1.19-15.5-1.532c-8.05-.938-26.486-7.219-34.001-11.584-8.223-4.776-21.534-17.151-25.979-24.153-1.828-2.879-3.896-5.83-4.595-6.556-.699-.727-1.271-1.766-1.271-2.309s-.45-.71-1-.37-1-.253-1-1.319c0-2.551-1.769-3.784-5.775-4.022-2.157-.128-3.475.33-3.863 1.341"/></svg>