<svg xmlns="http://www.w3.org/2000/svg" width="256" height="256"><path fill="#1976D2" fill-opacity=".016" fill-rule="evenodd" d="M0 128.004v128.004l128.25-.254 128.25-.254.254-127.75L257.008 0H0zm.485.496c0 70.4.119 99.053.265 63.672s.146-92.98 0-128S.485 58.1.485 128.5"/><path fill="#1976D2" fill-opacity=".458" fill-rule="evenodd" d="M45.397 12.745c-2.584 2.585-7.026 12.942-9.342 21.785-4.108 15.686-4.809 31.99-1.946 45.286.678 3.149.544 5.615-.496 9.115-6.624 22.306 1.847 46.319 20.24 57.373 3.317 1.994 3.329 2.028 1.145 3.197-2.517 1.347-6.786.849-8.998-1.05-1.681-1.444-10.773-1.628-11.633-.235-1.094 1.769.68 5.664 2.885 6.336 1.237.376 3.028 1.369 3.981 2.206 2.669 2.343 12.972 2.776 18.038.758 2.326-.926 5.027-2.4 6.003-3.276 3.547-3.185 3.638.185.155 5.776-3.911 6.277-7.121 16.523-8.065 25.74-.594 5.794-.811 6.242-2.754 5.687-4.385-1.251-5.509-1.538-7.587-1.939-3.362-.647-8.84-4.397-11.481-7.861-1.375-1.802-3.13-6.394-4.072-10.655a1457 1457 0 0 0-2.181-9.748c-.601-2.58-6-7.115-11.596-9.738-5.005-2.345-10.27-.887-14.6 4.045L0 159.07v16.233c0 18.396.175 18.91 9.883 28.993 11.21 11.644 29.164 16.967 50.422 14.948l8.804-.836-.367 8.297c-.307 6.95-.72 8.626-2.542 10.324-2.529 2.355-3.651 5.973-2.743 8.837.937 2.95 6.69 4.452 15.007 3.918 9.427-.605 14.292-3.323 19.152-10.701 2.023-3.071 5-7.27 6.615-9.333 2.872-3.667 3.085-3.75 9.631-3.75 8.319 0 9.909 1.046 15.104 9.942 4.29 7.346 8.565 11.603 12.861 12.808 1.47.413 6.113.75 10.318.75 6.115 0 8.066-.381 9.75-1.905 2.976-2.693 2.63-6.224-.961-9.815l-3.066-3.066 1.277-7.107c.703-3.909 1.219-13.519 1.147-21.357l-.131-14.25 7.17-.044c3.943-.024 8.857-.646 10.919-1.382 4.437-1.583 4.445-1.552 2.25 8.426-1.766 8.027-1.883 14.217-.3 15.8 1.698 1.698 5.944 1.488 8.683-.431 3.319-2.324 4.754-6.451 6.576-18.917 2.155-14.741 3.838-19.461 7.831-21.965 1.765-1.108 4.673-4.196 6.46-6.863 2.584-3.856 3.25-5.872 3.25-9.836 0-5.32-2.388-11.616-4.75-12.522-1.643-.631-1.318-3.995 1.875-19.402l1.168-5.637 7.333-1.183c9.344-1.507 17.937-5.804 23.222-11.61 2.284-2.51 4.152-4.806 4.152-5.104s1.125-1.878 2.5-3.512 2.5-3.81 2.5-4.836c0-1.025.398-2.11.884-2.411.487-.3 1.446-3.522 2.132-7.158 5.398-28.607-18.551-57.105-46.359-55.165-3.936.275-9.182 1.261-11.657 2.191-6.988 2.625-6.952 2.644-9.445-4.939-3.212-9.77-3.289-9.912-6.409-11.754-2.553-1.509-3.294-1.518-8.718-.11-9.053 2.351-23.289 9.599-32.531 16.562-5.775 4.352-9.322 6.332-11.607 6.478-1.809.116-3.29-.218-3.29-.741 0-.524-.91-.386-2.023.307-1.676 1.042-2.533.966-5-.445-1.637-.937-2.977-1.275-2.977-.75 0 1.294-6.651 1.21-9.13-.116-1.399-.749-2.378-.754-3.265-.018-2.392 1.985-9.696.433-12.523-2.662-5.724-6.267-23.45-16.501-34.015-19.639-6.808-2.021-7.525-2.011-9.67.133M57 19.525c0 .228 3.476 2.11 7.725 4.182 6.83 3.33 15.351 8.91 25.936 16.984 1.837 1.4 3.339 2.307 3.339 2.014 0-1.004-12.743-10.673-19.382-14.707C68.121 24.052 57 18.703 57 19.525m108.353 2.364c-7.217 2.848-10.516 4.635-20.145 10.911-8.92 5.815-4.893 4.803 5.45-1.369 5.36-3.198 13.142-7.298 17.294-9.111 9.207-4.02 7.299-4.337-2.599-.431m37.991 12.094c-4.293.91-11.815 4.353-12.725 5.824-.284.46 1.822-.321 4.68-1.735 4.539-2.247 6.466-2.572 15.236-2.572 9.189 0 10.562.259 16.22 3.063 3.399 1.685 5.738 2.531 5.198 1.881s-3.622-2.369-6.849-3.817c-6.516-2.924-15.362-3.999-21.76-2.644M98 41.011c-1.137.852.072.978 5 .521 5.7-.529 20.723.519 28 1.954 1.375.271.475-.22-2-1.09-5.685-2.001-28.8-3.033-31-1.385m-47.612 1.421c-.501 1.306 1.232 22.522 1.894 23.183.156.156 2.711-2.168 5.678-5.166C60.926 57.452 63.808 55 64.364 55s-.279-1.345-1.854-2.99c-1.575-1.644-2.591-3.262-2.258-3.596.334-.333 2.916.071 5.738.898l5.132 1.505-1.428-2.159c-3.45-5.214-17.906-9.876-19.306-6.226m117.245 1.119c-2.677 1.375-5.814 3.163-6.972 3.974-2.009 1.407-1.926 1.475 1.816 1.475 3.051 0 3.656.267 2.723 1.2-1.666 1.666-1.498 2.8.415 2.8 1.484 0 1.485.199.011 2.448-.882 1.346-1.206 2.693-.721 2.993.486.3 1.646-1.364 2.578-3.697.933-2.334 3.23-6.382 5.105-8.994 4.042-5.632 2.801-6.182-4.955-2.199M115.5 46c.34.55.816 1 1.059 1s.441-.45.441-1-.477-1-1.059-1-.781.45-.441 1m80.613 3.766c-4.837 1.935-6.11 2.893-6.098 4.59.021 2.939 1.1 4.378 3.592 4.793l2.106.351-2.798 14c-1.539 7.7-2.825 14.775-2.857 15.721-.062 1.826 5.774 4.093 7.224 2.808.43-.381 2.566-9.431 4.746-20.111s4.186-20.379 4.458-21.553c.752-3.245-3.191-3.473-10.373-.599M217 50.66c-5.86 2.322-9.009 9.988-6.536 15.909 1.495 3.577 1.471 3.69-1.374 6.347C200.006 81.402 204.767 97 216.442 97c9.701 0 15.964-12.025 10.676-20.5-1.865-2.989-1.863-3.01.585-5.638 4.693-5.039 4.676-13.279-.038-17.707-2.422-2.275-7.953-3.569-10.665-2.495m1.39 9.767c-.82 2.135-.053 5.863 1.296 6.307.653.214 1.943-.765 2.869-2.177 1.356-2.071 1.442-2.856.441-4.062-1.57-1.892-3.893-1.926-4.606-.068m-92.311 10.156c.048 1.165.285 1.402.604.605.289-.722.253-1.585-.079-1.917s-.568.258-.525 1.312M236 72c0 1.296-.667 2-1.893 2-2.64 0-3.655 3.044-1.227 3.679 1.219.319 1.723 1.122 1.423 2.27-.306 1.17.216 1.953 1.53 2.297 1.416.37 2.147-.063 2.521-1.492.353-1.348 1.055-1.811 2.124-1.401 2.28.875 3.266-2.336 1.184-3.858-.914-.668-1.662-2.178-1.662-3.355 0-1.473-.623-2.14-2-2.14q-2 0-2 2M75.324 75.638c-5.404 1.915-12.837 8.492-15.521 13.734-2.39 4.667-4.061 10.906-2.696 10.062.491-.304.893-1.356.893-2.338 0-3.06 7.445-13.47 11.569-16.176 7.422-4.87 16.13-6.242 24.634-3.88 5.7 1.583 13.159 8.06 16.273 14.132 1.952 3.805 2.549 4.47 2.087 2.328-1.5-6.955-10.864-16.379-18.338-18.454-5.188-1.441-13.938-1.167-18.901.592m138.749 3.997c-2.322 2.951-2.552 4.601-1.038 7.431 1.386 2.588 4.491 2.449 6.408-.289 1.993-2.844 1.987-6.204-.014-8.206-2.151-2.151-2.953-1.991-5.356 1.064M86.498 85.738c-3.798 1.967-4.464 3.003-4.483 6.977-.017 3.531 2.09 5.285 6.348 5.285 3.659 0 5.912-2.707 5.337-6.411-.344-2.212.127-3.79 1.66-5.559 1.177-1.358 1.465-1.982.64-1.386-1.719 1.242-5.259 1.417-6.002.297-.276-.416-1.851-.058-3.5.797m62.347 3.702c-.847 1.861-.872 3.205-.09 4.921 2.049 4.497 8.653 3.845 9.862-.972.948-3.774-.704-5.837-4.962-6.199-3.088-.263-3.821.08-4.81 2.25m11.83 11.654c-1.107 9.353-5.629 13.867-13.972 13.946l-4.203.04 2.894 1.567c5.561 3.012 13.634-.076 16.19-6.193 1.554-3.72 1.925-13.022.552-13.87-.475-.293-1.132 1.736-1.461 4.51M98 101.22c0 4.99-4.52 13.32-8.594 15.838-4.176 2.581-10.706 3.14-15.262 1.306-4.348-1.75-5.907-.752-2.73 1.747 3.764 2.961 15.631 2.969 21.375.015 6.717-3.456 10.38-11.53 8.42-18.561-1.187-4.26-3.209-4.477-3.209-.345m-61.001-.47c-.001.412 2.586.623 5.75.467 10.034-.493 11.018-.912 2.501-1.067-4.538-.083-8.251.188-8.251.6m26.653 2.932c-1.042 1.041-.752 3.498.333 2.827.615-.38.744.594.344 2.597-.459 2.296-.313 3.002.515 2.49 1.712-1.057 1.402 1.015-.424 2.842-2.471 2.47-1.206 3.643 1.527 1.416 2.101-1.712 2.273-2.272 1.216-3.964-.677-1.084-.993-2.356-.702-2.827.696-1.126-1.966-6.225-2.809-5.381m89.098 4.895c-.412.416-.75 1.671-.75 2.79 0 1.471.302 1.731 1.094.939.601-.601.939-1.857.75-2.789s-.682-1.356-1.094-.94m19.43 2.326c-7.623 2.633-8.659 4.348-1.229 2.035 3.425-1.066 7.789-1.938 9.697-1.938 2.059 0 3.219-.407 2.852-1-.93-1.505-5.374-1.151-11.32.903m-125.68.192c-2.428.541-1.999.691 2.25.787 2.888.065 5.25-.055 5.25-.265 0-.83-4.661-1.154-7.5-.522m39.176 2.307c-.628 1.636.11 2.598 1.991 2.598.733 0 1.333-.9 1.333-2 0-2.274-2.508-2.725-3.324-.598m100.723 3.447-.899 4.651-8 .106c-4.4.058-9.031.525-10.29 1.037-1.554.631.938.801 7.75.528 5.522-.222 10.04-.098 10.04.275s-1.157 3.124-2.572 6.114c-3.514 7.428-10.882 15.197-18.811 19.834-3.639 2.128-6.617 4.251-6.617 4.717 0 1.334 7.642 4.889 10.51 4.889 4.92 0 8.141-2.556 9.369-7.433 1.539-6.112 6.314-11.359 11.631-12.781l4.23-1.131 2.22-10.404c1.221-5.723 2.058-10.567 1.859-10.765s-2.421-1.244-4.94-2.324l-4.581-1.963zm-62.649-3.187c.688.278 1.813.278 2.5 0 .688-.277.125-.504-1.25-.504s-1.937.227-1.25.504m-19.094 4.898c-8.954 10.472-23.63 12.239-34.888 4.202-3.943-2.816-4.087-2.851-1.891-.455 7.786 8.492 24.699 9.063 33.881 1.144 3.046-2.627 8.223-9.544 7.049-9.418-.169.018-2.037 2.055-4.151 4.527m83.344.471c0 1.921.715 3.791 1.75 4.577 1.626 1.234 1.596 1.331-.427 1.36-1.656.024-2.782 1.356-4.709 5.563-3.153 6.888-12.398 16.739-19.466 20.743-4.56 2.583-5.093 3.177-3.603 4.011 2.98 1.668 9.118 1.33 11.272-.619 1.092-.988 2.28-3.369 2.64-5.291.886-4.721 6.804-11.073 11.675-12.533 2.962-.887 4.042-1.8 4.446-3.757.293-1.422 1.161-5.285 1.929-8.584 1.517-6.521 1.344-7.026-2.757-8.039-2.575-.636-2.75-.472-2.75 2.569m40-.031c-1.293.835-1.266.971.191.985.93.008 1.969-.435 2.309-.985.782-1.266-.542-1.266-2.5 0m-177.324 5.452c-2.104.75-4.129 1.702-4.5 2.115s.151.454 1.161.09 3.711-.946 6-1.293 4.838-1.008 5.663-1.467c2.525-1.407-4.053-.969-8.324.555m-10.531 17.397c-.793 1.074-.964 1.126-.49.151.626-1.287.491-1.307-.952-.137-2.215 1.797-1.189 3.297 1.751 2.559 1.303-.327 3.7.124 5.438 1.022 4.11 2.126 3.92 1.544-.71-2.177-3.454-2.777-3.934-2.911-5.037-1.418m149.668.834c.721.289 1.584.253 1.916-.079s-.258-.568-1.312-.525c-1.165.048-1.402.285-.604.604m-5.03 2.067c-2.092 2.398-4.051 6.316-3.455 6.911.269.269.808-.514 1.198-1.742s1.846-3.286 3.237-4.575 2.083-2.344 1.538-2.344-1.678.787-2.518 1.75m17.967 2.912c.688.278 1.25 1.142 1.25 1.921s.637 1.417 1.417 1.417c.779 0 1.643.563 1.921 1.25.377.936.524.946.583.039.095-1.463-3.873-5.321-5.36-5.21-.583.043-.498.306.189.583M97.2 149.2c-.66.66-1.2 1.592-1.2 2.071s.74.132 1.644-.772c2.03-2.03 4.798-1.483 12.715 2.512 3.222 1.626 5.323 2.311 4.668 1.521-1.836-2.212-11.11-6.532-14.023-6.532-1.432 0-3.144.54-3.804 1.2m43.285.894c-2.192 1.151-4.885 3.02-5.985 4.152l-2 2.059 3-2.004c1.65-1.102 5.088-2.788 7.64-3.746 3.86-1.45 5.038-1.531 7-.485 2.15 1.146 2.238 1.11.988-.406-1.859-2.254-5.841-2.093-10.643.43M61.5 150c-.34.55-.141 1 .441 1S63 150.55 63 150s-.198-1-.441-1-.719.45-1.059 1m-19 1c.34.55 1.068 1 1.618 1s.722-.45.382-1-1.068-1-1.618-1-.722.45-.382 1m12.058 1.907c-.309.498.34.671 1.441.383 2.335-.611 2.63-1.29.56-1.29-.793 0-1.693.408-2.001.907m-6.289.786c.973.254 2.323.237 3-.037s-.119-.481-1.769-.461-2.204.244-1.231.498M98 154.5c0 .825.45 1.5 1 1.5s1-.675 1-1.5-.45-1.5-1-1.5-1 .675-1 1.5m-87.535 1.405c-1.119.479-2.686 1.709-3.482 2.733-1.392 1.79-1.369 1.794.6.124 5.244-4.45 13.734-2.239 16.434 4.279.689 1.663 1.45 2.826 1.691 2.584.685-.685-2.284-5.932-4.482-7.92-2.328-2.108-7.876-3.036-10.761-1.8m19.753.249c.519 1.558 2.756 1.83 2.835.346.029-.55-.698-1.155-1.615-1.346-1.043-.215-1.5.159-1.22 1m90.782-.327c0 .455 1.354.628 3.009.385 1.678-.246 3.779.162 4.75.923 1.576 1.236 1.611 1.199.369-.385-1.388-1.769-8.128-2.535-8.128-.923m57.635 3.681c-.336.877-2.69 2.514-5.231 3.637-3.856 1.706-5.282 1.875-8.637 1.024-2.663-.676-3.679-.681-3.014-.016 1.83 1.83 8.747 2.157 11.837.559 3.299-1.706 7.004-5.451 6.194-6.261-.295-.296-.812.18-1.149 1.057m-118.885.181c-.962.252-1.75.901-1.75 1.443s.412.732.915.421 1.102-.001 1.332.688c.26.779.874.402 1.621-.994 1.214-2.268 1.053-2.386-2.118-1.558m24.28 1.561c.016.688 1.81 3.275 3.985 5.75l3.955 4.5-.551-3.5c-1.242-7.892-1.302-8-4.438-8-1.734 0-2.969.523-2.951 1.25m-57.951 7.333c.048 1.165.285 1.402.604.605.289-.722.253-1.585-.079-1.917s-.568.258-.525 1.312m98.202 9.214c-5.155.246-7.098.888-11.351 3.75-2.822 1.899-5.612 3.453-6.199 3.453-.588 0 2.055 3.262 5.873 7.25s8.957 9.62 11.419 12.516l4.477 5.265 8-12.146c8.302-12.604 9.435-14.581 7.772-13.553-.542.335-3.413-.854-6.379-2.643-7.332-4.421-6.644-4.225-13.612-3.892m.759 2.655c-1.798 2.166-.332 5.548 2.405 5.548 3.299 0 4.988-2.322 3.589-4.936-1.283-2.398-4.259-2.702-5.994-.612M14 181c0 .55.477 1 1.059 1s.781-.45.441-1-.816-1-1.059-1-.441.45-.441 1m112.2 10.2c-2.803 2.803-.076 7.53 3.66 6.345 2.52-.8 3.408-3.175 2.101-5.617-1.163-2.175-3.961-2.528-5.761-.728m51.467 2.467c-.367.366-.653 1.379-.637 2.25.025 1.3.221 1.257 1.092-.242 1.077-1.852.765-3.228-.455-2.008m-1.588 6.916c.048 1.165.285 1.402.604.605.289-.722.253-1.585-.079-1.917s-.568.258-.525 1.312M187 203.559c0 .857-.419 1.3-.931.984-1.104-.682-1.569.021-2.45 3.707-.584 2.446-.379 2.75 1.862 2.75 2.319 0 2.519-.358 2.519-4.5 0-2.475-.225-4.5-.5-4.5s-.5.702-.5 1.559"/><path fill="#1976D2" fill-opacity=".441" fill-rule="evenodd" d="M45.291 14.25c-2.874 3.143-4.666 6.988-7.595 16.29-4.018 12.763-5.215 25.915-3.795 41.671 1.035 11.476.987 14.122-.351 19.257-3.41 13.093-.799 29.174 6.624 40.784 3.211 5.024 11.795 13.313 15.576 15.041 4.12 1.882 2.583 2.836-4.575 2.838-1.829 0-4.305-.641-5.503-1.426-1.197-.785-3.976-1.32-6.175-1.19-3.479.206-4.038.572-4.31 2.826-.254 2.099.2 2.718 2.395 3.269 1.489.374 3.542 1.514 4.563 2.535 1.844 1.844 4.613 2.361 10.355 1.933 3.605-.268 11.455-2.796 13.213-4.255.694-.576 1.974-.773 2.845-.439 1.403.538 1.362.922-.359 3.362-2.75 3.898-7.124 12.774-7.626 15.474-.234 1.254-.492 2.28-.575 2.28-.309 0-.962 3.211-2.134 10.5-.664 4.125-1.286 7.619-1.383 7.764s-3.101-.638-6.676-1.742c-8.556-2.643-15.062-7.621-16.56-12.67-6.085-20.509-5.717-19.711-10.137-21.963-2.279-1.162-4.959-2.849-5.955-3.75-2.447-2.215-6.73-2.063-10.681.379C.454 156.737 0 158.297 0 175.269c0 15.202.026 15.379 2.878 19.785 6.479 10.01 18.79 18.791 31.622 22.554 5.637 1.654 13.524 1.93 31 1.085l4-.193-.305 8.257c-.265 7.183-.629 8.608-2.798 10.949-1.751 1.889-2.405 3.594-2.196 5.72.44 4.462 3.651 5.742 13.323 5.313 9.886-.439 14.792-2.884 18.936-9.434 1.59-2.513 4.622-6.76 6.739-9.437 3.828-4.844 3.876-4.868 9.574-4.768 10.159.177 11.422 1.126 18.488 13.9 3.532 6.386 8.976 9.229 18.758 9.795 7.237.419 7.797.299 10.317-2.221 3.42-3.421 3.363-5.645-.235-9.205l-2.899-2.869 1.462-7c1.009-4.827 1.366-11.542 1.149-21.63l-.313-14.63 9.5-.549c5.225-.302 10.432-.837 11.57-1.19 2.068-.639 2.069-.624.59 9.983-1.286 9.231-1.292 10.813-.045 12.06s2.016-1.318 5.863-19.555c2.436-11.544 4.739-20.989 5.118-20.989s.96.704 1.29 1.563c.33.86 1.014 1.308 1.519.995.506-.312.278 2.183-.506 5.546-2.277 9.758-4.207 19.959-4.901 25.896-.353 3.025-.9 6.396-1.215 7.492-.495 1.727-.36 1.816 1.022.67 2.31-1.917 3.474-6.222 5.144-19.026 1.581-12.116 4.342-19.617 7.602-20.652 1.055-.335 3.577-2.635 5.606-5.111 2.988-3.646 3.774-5.525 4.136-9.891.545-6.574-.08-9.306-2.972-12.982-2.104-2.675-2.524-6.652-1.309-12.408 1.103-5.231 3.406-14.328 3.673-14.509.173-.117 3.912-.794 8.307-1.504s10.021-2.356 12.5-3.657c4.578-2.404 10.008-6.756 10.008-8.021 0-.382 1.587-2.631 3.526-4.998 13.676-16.689 10.285-44.796-7.311-60.61-11.151-10.021-29.031-13.482-43.215-8.364-2.475.893-4.874 1.724-5.332 1.847-.457.123-2.088-3.29-3.625-7.586-1.537-4.295-3.731-8.682-4.877-9.75-5.684-5.295-24.339 1.419-42.59 15.328-7.799 5.943-8.028 6.039-14.5 6.088C104.362 37.505 89 35.661 89 33.145c0-2.904-20.88-15.458-31.718-19.072-7.867-2.623-9.452-2.599-11.991.177M54 18.271c.275.286 4.406 2.557 9.181 5.047C71.489 27.651 80.72 33.629 91.5 41.656l5 3.723-3-3.267c-5.239-5.703-16.7-13.82-26-18.411-8.314-4.105-14.694-6.671-13.5-5.43m115.5 1.679c-12.169 4.391-25.677 11.944-29.413 16.445-2.267 2.732-.094 1.822 10.344-4.329 5.538-3.263 13.894-7.594 18.569-9.624s8.688-3.86 8.917-4.066c1.087-.981-3.942-.04-8.417 1.574M50.636 33.64c-.994 7.248-.748 21.469.476 27.563l1.112 5.536 6.456-6.456c3.868-3.868 8.501-7.359 11.558-8.708l5.102-2.251-4.42-4.875C64.398 37.256 54.279 29 51.985 29c-.392 0-.999 2.088-1.349 4.64M171 32.785c-6.009 3.817-14.273 13.061-13.493 15.094.329.858.279 1.24-.112.849s-1.311-.213-2.044.396c-1.061.88-.465 1.722 2.908 4.114 2.332 1.654 4.967 3.917 5.854 5.028 1.565 1.962 1.666 1.88 3.448-2.786 1.009-2.644 3.546-7.084 5.637-9.867 3.804-5.062 4.467-8.073 2.952-13.399l-.65-2.286zm29.324 1.605C195.707 35.888 189 39.747 189 40.905c0 .407 2.65-.531 5.89-2.086 11.163-5.358 23.908-4.721 34.619 1.729 6.78 4.083 7.611 4.273 4.586 1.053-1.24-1.32-5.031-3.666-8.425-5.215-7.274-3.32-18.532-4.206-25.346-1.996m1.343 3.277c-1.365 1.364-.598 2.462 1.505 2.153 2.748-.405 3.671-2.82 1.078-2.82-1.054 0-2.217.3-2.583.667M217.5 40c.34.55 1.041 1 1.559 1s.941-.45.941-1-.702-1-1.559-1-1.281.45-.941 1M97.179 41.036c.292.878 3.254 1.181 10.365 1.06 5.476-.093 13.955.535 18.844 1.396 4.888.862 9.095 1.359 9.348 1.105.254-.253-1.946-1.239-4.887-2.19-6.815-2.203-34.321-3.323-33.67-1.371M115 45.441c0 1.614 1.416 2.809 2.292 1.934.78-.78-.295-3.375-1.399-3.375-.491 0-.893.648-.893 1.441m115 0c0 .857.45 1.559 1 1.559s1-.423 1-.941-.45-1.219-1-1.559-1 .084-1 .941M184.5 46c-.34.55-.141 1 .441 1S186 46.55 186 46s-.198-1-.441-1-.719.45-1.059 1m-64.861.694c-1.126 1.126-.685 2.306.861 2.306.825 0 1.5-.423 1.5-.941 0-1.261-1.562-2.164-2.361-1.365m75.111 2.999c-5.979 2.663-6.424 3.403-4.732 7.854.776 2.041 1.51 2.548 3.091 2.135 1.724-.451 1.984-.176 1.546 1.638-2.333 9.665-5.566 29.166-4.937 29.782.43.421 2.56.908 4.733 1.082 3.892.311 3.962.256 4.696-3.684.41-2.2 2.344-11.783 4.299-21.295S207 49.255 207 48.455c0-2.259-5.69-1.684-12.25 1.238M236 48.345c0 1.696 3.788 5.201 4.669 4.32C241.734 51.6 239.178 47 237.521 47c-.836 0-1.521.605-1.521 1.345m-21.783 3.216c-4.61 3.229-6.728 11.748-4.127 16.606.896 1.675.651 2.507-1.378 4.685-3.626 3.891-4.712 6.507-4.708 11.332.009 10.907 10.861 17.066 19.778 11.223 2.728-1.787 6.164-8.688 6.196-12.446.012-1.396-.824-4.198-1.858-6.226-1.629-3.194-1.687-3.85-.434-4.889 2.495-2.071 4.314-6.593 4.314-10.725 0-3.144-.707-4.728-3.368-7.55-2.873-3.046-4.017-3.571-7.778-3.571-2.425 0-5.412.702-6.637 1.561M240 56c0 .55.702 1 1.559 1s1.281-.45.941-1-1.041-1-1.559-1-.941.45-.941 1m-20.787 4.188c-1.719 1.718-1.503 4.763.388 5.489s3.516-1.386 3.155-4.099c-.316-2.371-1.93-3.004-3.543-1.39m-93.687 8.771c-.414.668-.258 1.709.344 2.311 1.537 1.537 2.51.231 1.36-1.823-.7-1.251-1.153-1.38-1.704-.488m110.091 2.431c-.37 1.474-1.274 2.337-2.358 2.25-1.117-.089-1.875.68-2.078 2.11-.22 1.545.191 2.25 1.312 2.25 1.119 0 1.534.708 1.32 2.25-.235 1.692.246 2.329 1.941 2.57 1.353.192 2.496-.308 2.857-1.25.332-.863 1.407-1.57 2.389-1.57 1.88 0 3.4-2.544 2.444-4.09-.309-.501-1.259-.91-2.111-.91-1.136 0-1.389-.64-.949-2.396.417-1.66.118-2.581-.973-3-2.587-.992-3.165-.72-3.794 1.786M119 71.5c0 .825.45 1.5 1 1.5s1-.675 1-1.5-.45-1.5-1-1.5-1 .675-1 1.5m-46.8 5.558c-6.499 3.248-9.942 6.653-13.475 13.326-3.061 5.782-3.075 17.424-.028 23.177 7.319 13.819 24.622 20.26 37.803 14.072 22.198-10.422 23.633-39.915 2.457-50.497C93.671 74.495 91.547 74 85.5 74c-6.008 0-8.18.499-13.3 3.058m3.548 1.319C71.035 80.121 65 84.664 65 86.468c0 .751-.338 1.515-.75 1.699-1.853.823-4.25 8.35-4.25 13.347 0 5.814 2.592 13.856 4.155 12.89.566-.35.492-1.125-.188-1.944-.622-.749-1.152-3.774-1.179-6.723-.074-8.272 4.87-17.941 10.712-20.951 1.133-.584.401.647-1.69 2.842-4.467 4.686-5.821 8.011-5.777 14.187l.034 4.685 1.991-2.392c2.846-3.416 3.566-1.871.844 1.811-2.194 2.967-2.216 3.2-.626 6.533 2.288 4.8 6.708 6.88 13.429 6.323 6.803-.565 10.036-2.893 13.545-9.755 3.109-6.081 3.496-11.3 1.237-16.706-1.842-4.407-1.268-5.436 1.054-1.892 5.863 8.948 5.797 21.383-.143 27.323-.739.739-3.406 2.256-5.927 3.371-3.686 1.631-5.966 1.93-11.653 1.529-6.197-.436-7.463-.878-10.242-3.571-1.744-1.691-3.487-3.074-3.874-3.074-1.495 0-.583 2.034 2.048 4.565 9.227 8.876 25.385 8.91 35.099.072 7.002-6.371 9.474-19.218 5.337-27.741-1.943-4.003-11.165-14.796-11.201-13.11-.009.393-.44.043-.958-.777-1.31-2.071-15.219-2.505-20.279-.632m138.32 1.497c-1.601 2.99-1.302 7.099.568 7.817 2.848 1.092 4.864-1.104 4.864-5.3 0-3.238-.366-3.943-2.182-4.202-1.378-.196-2.576.425-3.25 1.685M87.5 84.517c-4.88 2.995-6.5 5.085-6.5 8.386 0 1.616-1.511 4.061-4.208 6.809-5.029 5.124-3.429 5.761 2.046.815 3.537-3.195 4.085-3.382 6.856-2.336 3.628 1.369 5.666.715 7.769-2.494 1.115-1.702 1.323-3.102.708-4.764-.682-1.844-.422-2.719 1.196-4.029 1.765-1.43 1.872-1.911.728-3.289-1.829-2.204-3.885-1.988-8.595.902m62.155 3.312C146.218 91.626 148.788 98 153.756 98c1.154 0 3.032-1.186 4.171-2.635L160 92.73l.111 2.885c.286 7.454-1.17 13.224-3.978 15.765-1.67 1.511-1.787 1.475-1.712-.528.043-1.182-.543-2.365-1.303-2.628-1.042-.361-1.269.296-.92 2.672.392 2.672.1 3.242-1.922 3.75-1.312.329-4.048.34-6.08.024l-3.696-.575 2.361 1.953c2.861 2.366 9.953 2.617 14.054.496 7.838-4.053 8.335-23.754.732-29.079-2.836-1.986-5.995-1.843-7.992.364M67 100c0 .55.45 1 1 1s1-.45 1-1-.45-1-1-1-1 .45-1 1m-30.569 1.112c-1.191 1.926 1.827 2.857 9.319 2.873 6.588.014 7.25-.167 7.25-1.985 0-1.832-.667-2-7.941-2-4.748 0-8.217.447-8.628 1.112m140.976 7.976c-4.728.871-13.407 4.736-13.407 5.971 0 .461 1.688.129 3.75-.738 2.063-.868 6.9-2.115 10.75-2.773 5.778-.986 6.651-1.371 5-2.204-1.166-.588-3.708-.695-6.093-.256M44 111c-1.127.729-.631.977 2 .998 1.925.016 4.513.301 5.75.632 1.654.444 2.25.175 2.25-1.013 0-1.238-.996-1.613-4.25-1.602-2.337.009-4.925.452-5.75.985m42.2 1.2c-1.605 1.605-1.531 4.8.112 4.8.722 0 2.383-1.463 3.691-3.25 1.309-1.787 1.698-2.698.864-2.024-.985.798-1.856.885-2.491.25s-1.395-.557-2.176.224m99.989 3.05c-.449 6.161-.599 6.279-7.526 5.921-6.474-.334-14.663 1.208-14.663 2.762 0 .472 1.682.466 3.75-.014 2.063-.479 6.563-.882 10-.895 7.469-.029 7.775.784 3.257 8.662-4.094 7.138-11.421 14.19-18.865 18.158-3.438 1.832-6.089 3.854-5.892 4.494.562 1.819 7.46 4.852 11.283 4.96 4.867.138 8.501-2.917 10.134-8.52 1.755-6.018 6.322-10.593 11.382-11.402 4.422-.707 4.217-.295 6.745-13.517l1.843-9.641-5.088-2.109c-2.798-1.16-5.321-2.109-5.606-2.109s-.624 1.463-.754 3.25m-65.748-.735c-1.83 1.429-1.769 1.478 1.059.86 1.65-.361 3.159-.789 3.353-.952s1.431.115 2.75.616c1.322.503 2.397.522 2.397.043 0-2.349-6.762-2.75-9.559-.567m-38.934 2.474c-.35.566.051.734.941.393 1.732-.665 2.049-1.382.611-1.382-.518 0-1.216.445-1.552.989m121.939 3.691c-1.706.339-2.355 1.884-3.829 9.114-.976 4.788-2.023 9.757-2.326 11.043-.471 1.998-.212 2.287 1.788 2 1.767-.255 2.515-1.194 3.055-3.837 1.197-5.861 3.634-19.009 3.496-18.864-.072.075-1.054.32-2.184.544m-150.757 2.748c-2.646.712-5.346 1.868-6 2.569-.95 1.018-.686 1.148 1.311.642 1.375-.348 4.862-.921 7.75-1.274 5.282-.644 6.598-1.634 3.668-2.758-.87-.334-1.657-.577-1.75-.54-.092.038-2.333.65-4.979 1.361M72 132.819c0 1.208 1.897 2.617 2.591 1.924.251-.252-.229-1.027-1.067-1.723-.95-.789-1.524-.865-1.524-.201m0 5.622c0 .857.45 1.559 1 1.559s1-.423 1-.941-.45-1.219-1-1.559-1 .084-1 .941m106.924 2.309-2.424 2.75 2.75-2.424c2.57-2.266 3.209-3.076 2.424-3.076-.179 0-1.416 1.238-2.75 2.75m-109.315 1.826c-.83 2.164-.439 2.555 1.412 1.411 1.07-.662 1.165-1.201.353-2.013-.811-.811-1.284-.65-1.765.602m114.87 2.745c-2.109 2.109-3.573 4.755-4.012 7.25-1.44 8.184-6.422 11.976-14.691 11.181-5.174-.497-5.267.673-.171 2.135 6.518 1.869 13.843-3.216 15.454-10.729q1.916-8.934 8.356-11.737c2.785-1.212 2.856-1.347.735-1.382-1.366-.023-3.741 1.352-5.671 3.282M65 147.212c0 .748.905 1.359 2.012 1.359 2.362 0 2.086-1.923-.345-2.394-.917-.178-1.667.288-1.667 1.035m136.75.382c1.238.908 2.25 2.27 2.25 3.028s.418 1.265.929 1.128 1.622.65 2.469 1.75c1.331 1.73 1.543 1.771 1.57.306.044-2.352-3.96-6.521-6.968-7.253l-2.5-.608zm-105.193 2.629c-.856 1.222-1.539 2.909-1.517 3.75.023.862.69.33 1.532-1.223 1.991-3.669 4.941-3.555 12.707.493 8.32 4.337 8.53 4.397 6.221 1.795-2.754-3.104-10.809-7.038-14.41-7.038-1.942 0-3.518.772-4.533 2.223m41.693.807c-7.211 4.135-6.641 5.701.721 1.984 7.137-3.602 10.36-3.807 12.472-.791 1.135 1.62 1.557 1.797 1.557.654 0-2.411-3.334-4.878-6.579-4.868-1.606.006-5.284 1.365-8.171 3.021m-101.95-.61c.195.594 1.782 1.221 3.527 1.393 1.946.193 3.173.869 3.173 1.75 0 2.244 1.702 1.685 2.344-.769.754-2.883.521-3.04-4.844-3.264-2.884-.12-4.424.206-4.2.89m24.311.151c-.387 1.008-1.357 1.467-2.481 1.173-1.015-.265-2.579-.072-3.475.429-1.004.562-2.348.527-3.504-.092-1.323-.708-2.383-.632-3.603.26-1.636 1.197-1.635 1.341.024 2.712 1.25 1.031 1.866 1.113 2.145.283.269-.798 1.32-.899 3.338-.32 1.755.503 2.945.468 2.945-.086 0-.511.9-.93 2-.93s2-.47 2-1.044.788-.911 1.75-.75c.981.165 1.75-.328 1.75-1.123 0-2.067-2.146-2.448-2.889-.512m37.089 2.77c-.283.737-.125 1.971.351 2.741 1.167 1.888 3.457-.316 2.613-2.515-.737-1.92-2.27-2.037-2.964-.226m50.492.734c.197.591.786 1.075 1.308 1.075s1.111-.484 1.308-1.075S150.417 153 149.5 153s-1.505.484-1.308 1.075M121.2 155.2c-1.901 1.901-1.396 2.975.838 1.78 2.297-1.229 5.219-.58 7.456 1.657 1.341 1.341 1.506 1.34 1.506-.009 0-3.449-7.245-5.983-9.8-3.428M7.646 157.452C6.191 158.801 5 160.437 5 161.089c0 .651 1.186-.003 2.636-1.453 1.962-1.961 3.651-2.636 6.6-2.636 5.742 0 10.094 4.598 11.862 12.534.988 4.437 1.417 5.281 1.674 3.292.585-4.519-1.776-11.03-5.262-14.516-4.313-4.313-10.736-4.683-14.864-.858m73.354.239c0 .853 4.204 6.623 7.741 10.625l3.373 3.816-.678-6.316c-.373-3.474-.962-6.597-1.307-6.94-.789-.782-9.129-1.865-9.129-1.185m32.545 20.019c-2.725 1.882-6.206 3.672-7.735 3.978-2.746.549-2.66.688 6.955 11.196 5.354 5.851 10.943 12.096 12.42 13.878 1.477 1.781 2.928 3.238 3.225 3.238.63 0 11.338-15.788 15.535-22.906l2.89-4.902-3.167-.631c-1.743-.347-5.365-2.138-8.05-3.979-4.354-2.986-5.256-3.245-8.332-2.395-2.133.589-4.466.599-6.117.027-2.246-.778-3.455-.382-7.624 2.496m-99.965 2.16c-.307.497.112 1.459.931 2.139 1.211 1.005 1.489.944 1.489-.328 0-1.866-1.631-3.087-2.42-1.811m111.418 1.134c-.858 1.602-.844 2.476.055 3.56 2.79 3.361 7.562.224 5.249-3.45-1.536-2.44-4.03-2.492-5.304-.11M19 183.441c0 .857.45 1.559 1 1.559s1-.423 1-.941-.45-1.219-1-1.559-1 .084-1 .941m107.145 8.884c-1.867 2.25-.294 4.83 2.733 4.479 2.049-.238 2.622-.85 2.622-2.804 0-2.911-3.437-3.986-5.355-1.675"/><path fill="#1976D2" fill-opacity=".303" fill-rule="evenodd" d="M49.346 15.679c.374.374 3.908 1.732 7.853 3.018 8.641 2.817 17.565 7.691 26.586 14.518 3.682 2.788 6.047 4.288 5.255 3.334C83.735 30.156 57.201 15 51.314 15c-1.456 0-2.342.306-1.968.679M169.5 17.272c-1.65.52-5.878 2.007-9.396 3.305s-6.85 2.08-7.405 1.737c-.554-.343-.716-.151-.359.427.357.577-.047 1.316-.898 1.643-.965.37-1.292.183-.871-.499.371-.601-.505-.319-1.948.626-2.655 1.74-3.675 3.175-1.373 1.932.688-.371-.325.726-2.25 2.439-1.925 1.712-3.102 3.114-2.615 3.116 1.389.003-3.452 3.507-8.122 5.878-3.149 1.599-5.333 2.015-8.5 1.619l-4.263-.533 5 1.442c7.373 2.125 10.217 3.329 11.052 4.68.552.893-.004 1.019-2.128.486-8.838-2.218-15.219-2.935-26.674-2.999-9.007-.05-12.75-.413-12.75-1.238 0-.641.563-1.393 1.25-1.671.69-.278.354-.574-.75-.66a43 43 0 0 1-3.879-.509c-1.463-.276-1.186.361 1.25 2.874 3.677 3.794 4.037 5.207.879 3.456-1.237-.686-2.621-1.141-3.074-1.011-.454.131-.554-.201-.222-.737.728-1.179-2.893-3.303-3.906-2.29-.393.393-.565.04-.381-.785.204-.92-.34-1.447-1.406-1.363-.957.075-1.503-.246-1.213-.715.789-1.276-9.976-8.079-11.723-7.408-.827.317-2.139-.231-2.915-1.218-1.29-1.643-1.259-1.677.364-.403.976.765 2.022 1.144 2.326.841.662-.663-10.833-7.201-16.743-9.522-3.038-1.194-4.318-1.33-4.598-.489-.213.64-.993.932-1.733.649-.773-.297-1.625.365-2.003 1.556C47.161 23.067 46.457 24 45.957 24c-.526 0-.498-1.078.068-2.565 1.458-3.835 1.2-5.089-.663-3.226-2.294 2.294-5.743 12.337-7.827 22.791-2.154 10.806-2.314 20.767-.521 32.595 1.099 7.251.232 14.145-2.145 17.048-.515.628-1.195 4.598-1.512 8.82-.604 8.064-.035 10.47 5.276 22.317 1.302 2.903 2.367 5.626 2.367 6.05s.563 1.329 1.25 2.013 1.951 3.321 2.807 5.862c1.16 3.442 2.43 5.087 4.984 6.457 1.885 1.011 2.985 1.845 2.443 1.854s.816 1.061 3.016 2.337c2.206 1.279 3.855 2.941 3.676 3.705-.233.996.212.901 1.581-.338 1.048-.949 2.17-1.46 2.493-1.137.323.324 1.097-.363 1.719-1.525.622-1.163 1.507-1.882 1.965-1.599.459.284 1.403-.858 2.098-2.537 1.113-2.686 1.442-2.877 2.735-1.584 1.524 1.525.813 4.138-.848 3.112-.518-.32-1.22.804-1.559 2.498-.395 1.979-1.148 2.986-2.104 2.816-.819-.145-1.869.742-2.334 1.971-.767 2.026-.665 2.122 1.091 1.025 1.464-.914 2.219-.928 3.091-.056.873.873.39 2.397-1.975 6.24-3.211 5.219-3.755 6.561-2.294 5.658 1.352-.836-2.426 17.574-5.061 24.661-1.248 3.357-6.692 6.202-9.965 5.209C44.629 192.9 38 189.691 38 188.754c0-.608-.524-.564-1.342.115-1.407 1.168-2.669.554-2.643-1.286.009-.596.452-.408.985.417.631.977.975 1.069.985.264.008-.68-1.785-2.427-3.985-3.883-4.01-2.653-5.209-4.059-2.613-3.063.973.374 1.236-.042.883-1.393-.572-2.188-1.883-2.534-2.555-.675-.249.688-.773-1-1.165-3.75-1.551-10.888-3.643-14.757-9.268-17.138-3.772-1.596-4.606-1.695-3.84-.455.309.498-.361.665-1.489.371-1.312-.344-2.929.29-4.497 1.763-1.347 1.265-2.698 2.05-3.003 1.745-1.043-1.043 4.284-6.187 7.669-7.406 3.375-1.215 3.374-1.215-1.59-.895-4.083.263-5.464.875-7.75 3.433C.003 160.029 0 160.046 0 174.959c0 13.364.22 15.299 2.099 18.484 1.953 3.31 3.804 5.101 2.384 2.307-.35-.687.243-.257 1.317.957 1.073 1.215 2.191 1.968 2.485 1.675.293-.293.809.289 1.146 1.293.784 2.33 10.944 9.719 17.125 12.453 8.187 3.621 17.127 5.755 22.187 5.294 15.178-1.381 18.447-1.244 20.884.876 1.876 1.631 2.373 3.06 2.373 6.823 0 2.619-.45 5.039-1 5.379s-1 1.413-1 2.385-1.12 2.819-2.49 4.105c-1.734 1.63-2.354 3.085-2.044 4.797.622 3.428.932 3.533 3.642 1.236 1.904-1.613 2.001-1.89.478-1.355-1.311.46-1.689.308-1.2-.483.392-.635 1.746-1.069 3.009-.964l2.295.19-2.028 3.438-2.029 3.438 7.434-.482c7.827-.508 13.245-2.569 14.355-5.462.598-1.559.486-1.583-1.129-.244-4.329 3.59-16.613 5.823-16.063 2.92.165-.874 1.559-1.638 3.279-1.798 3.898-.364 11.786-3.234 12.726-4.629.522-.777.739-.779.75-.009.008.596.69 1.084 1.515 1.084s1.5-.578 1.5-1.284.587-1.643 1.305-2.083 2.326-2.482 3.573-4.537c1.248-2.055 3.561-4.5 5.141-5.433s2.674-2.017 2.432-2.409.337-1.009 1.286-1.373 1.883-.187 2.077.395c.194.581 2.79 1.057 5.769 1.057 3.461 0 5.417.421 5.417 1.167 0 .641.293.873.651.515s1.259.13 2.003 1.084c1.278 1.64 1.318 1.639.737-.027-.469-1.345-.219-1.61 1.055-1.121.924.354 1.425 1.275 1.123 2.063-.3.783-.128 1.165.382.849.974-.602 8.049 10.67 8.049 12.824 0 .685.562 1.852 1.25 2.593 1.016 1.094.969 1.198-.25.553-.985-.521-1.156-.457-.5.186 1.449 1.419 10.963 3.335 15.826 3.188l4.174-.127-3.675-1.031c-2.153-.605-3.874-1.794-4.156-2.874-.536-2.049.37-2.403 1.995-.778.753.753 1.523.606 2.629-.5.86-.86 2.505-1.564 3.655-1.564 1.768 0 1.992-.424 1.452-2.75-.351-1.512-1.307-3.819-2.124-5.126-.818-1.306-1.102-2.656-.631-3 1.099-.802 1.274-5.192.179-4.515-.453.28-.824-.418-.824-1.55s.417-2.059.927-2.059c.509 0 1.072-3.826 1.25-8.502s.014-8.502-.364-8.5c-.378.001-.432-1.573-.119-3.498.368-2.271.171-3.5-.563-3.5-.622 0-1.131-.477-1.131-1.059s.393-.816.874-.519 1.713-.576 2.737-1.941c1.025-1.364 2.507-2.481 3.293-2.481s1.094-.335.685-.744c-1.155-1.155 7.027-2.801 11.971-2.408 2.438.194 4.185.756 3.88 1.249s.659.436 2.142-.128 2.811-.9 2.952-.747.655 2.753 1.142 5.778l.887 5.5 1.659-7a849 849 0 0 0 3.319-14.75c.913-4.262 1.964-7.75 2.337-7.75 2.182 0 4.896 3.189 4.462 5.243-.46 2.176-.433 2.185.756.257.678-1.1 2.397-3.095 3.819-4.434s2.585-2.756 2.585-3.15 1.464-1.999 3.252-3.566c4.394-3.85 4.664-9.077.809-15.655-1.513-2.582-2.393-4.695-1.956-4.695s.255-.54-.405-1.2-1.168-1.898-1.13-2.75c.051-1.125.331-1.001 1.021.45.828 1.743.885 1.679.443-.5-.279-1.375-.557-3.4-.619-4.5s-.649.025-1.305 2.5c-1.05 3.957-1.559 4.536-4.215 4.799l-3.021.3 2.563-12.467c1.41-6.857 2.867-12.77 3.238-13.141.371-.37 1.658-.361 2.861.02 1.919.609 2.118 1.202 1.626 4.842l-.562 4.147 1.31-3.5c1.092-2.92 1.396-3.169 1.834-1.5.514 1.962.526 1.961.64-.05.173-3.061 2.095-4.45 6.157-4.45 5.761 0 12.161-2.376 15.959-5.925l3.5-3.27-4.006 1.993c-5.976 2.974-11.93 4.327-19.045 4.327-6.625 0-18.033-2.643-19.14-4.434-.392-.634.019-.779 1.064-.378 16.471 6.32 32.262 3.941 44.236-6.667 5.042-4.467 10.182-13.843 11.047-20.153.491-3.583.865-4.314 1.566-3.061.506.904.611 3.09.232 4.856-.378 1.767-.335 2.874.097 2.461 2.148-2.057 2.648-22.608.517-21.291-.373.231-1.494-1.24-2.49-3.269-3.661-7.46-5.041-9.788-8.522-14.382-1.956-2.581-3.908-4.719-4.338-4.75s.995 2.305 3.168 5.193c6.064 8.059 7.614 12.804 7.614 23.302 0 8.456-.249 9.555-3.778 16.696-7.661 15.5-22.13 22.801-38.393 19.371-19.417-4.094-31.579-20.247-30.051-39.909 1.234-15.877 13.044-30.726 27.145-34.129 1.608-.388 5.883-.721 9.5-.74 5.236-.027 6.075-.228 4.116-.984-2.762-1.065-14.876-.93-15.558.173-.242.392-1.822.552-3.511.355s-2.857-.011-2.595.412c.262.424-1.178.755-3.2.737-3.55-.033-3.787-.269-6.962-6.914-1.807-3.784-3.531-6.635-3.831-6.336-.299.3-.042 1.483.572 2.63.742 1.386.769 2.086.081 2.086-.569 0-1.035-.45-1.035-1s-.787-1.007-1.75-1.015-2.425-.501-3.25-1.095c-1.214-.873-1.119-.954.5-.425 1.459.477 1.703.354.902-.454-.802-.809-1.806-.784-3.732.094-2.447 1.115-2.512 1.3-.903 2.603 1.563 1.265 1.519 1.299-.451.347-2.748-1.327-4.622-1.36-3.823-.066.336.543.011.758-.722.477s-6.848 2.649-13.59 6.511S140.49 38 139.961 38c-2.572 0-.222-2.361 7.289-7.323 10.527-6.954 14.66-8.963 23.014-11.183 3.721-.989 6.594-1.969 6.386-2.178-.898-.897-4.374-.919-7.15-.044M56.733 22.124c.679.684 1.486.991 1.793.683.308-.308-.247-.867-1.233-1.243-1.425-.542-1.54-.428-.56.56m4.708 2.321C62.509 25.3 63.821 26 64.358 26c1.27 0 .703-.462-2.358-1.92-2.357-1.122-2.389-1.102-.559.365M66 27c0 .55.477 1 1.059 1s.781-.45.441-1-.816-1-1.059-1-.441.45-.441 1m115.704 3.5c.318 2.75.739 5.188.937 5.417.747.867.18-6.506-.648-8.417-.558-1.287-.661-.217-.289 3m-137.625-.917c.048 1.165.285 1.402.604.605.289-.722.253-1.585-.079-1.917s-.568.258-.525 1.312m6.508 1.667c-1.417 9.154-1.569 15.106-.602 23.633.586 5.161 1.402 9.985 1.813 10.721.543.97 2.376-.309 6.664-4.649 3.295-3.336 8.267-7.101 11.226-8.501C72.61 51.072 75 49.53 75 49.028 75 46.251 54.691 28 51.6 28c-.28 0-.736 1.462-1.013 3.25m118.82 2.104c-5.543 4.167-11.349 10.367-14.122 15.081-1.673 2.845-1.61 3.096 1.092 4.327 1.307.596 3.968 2.48 5.914 4.188l3.537 3.106 2.516-5.497c1.384-3.023 4.069-7.529 5.965-10.013 3.094-4.052 3.397-5.006 2.948-9.281-.275-2.621-.825-5.122-1.222-5.558-.397-.437-3.38 1.205-6.628 3.647m-8.002-1.104L159.5 34.5l2.25-1.905c1.238-1.048 2.25-2.06 2.25-2.25 0-.8-.805-.209-2.595 1.905M220.5 34c2.749 1.181 4.328 1.181 2.5 0-.825-.533-2.175-.945-3-.914-.989.036-.819.347.5.914m4.5 1.393c0 .216.675.652 1.5.969s1.5.139 1.5-.393c0-.533-.675-.969-1.5-.969s-1.5.177-1.5.393m-120.187 3.29c.721.289 1.584.253 1.916-.079s-.258-.568-1.312-.525c-1.165.048-1.402.285-.604.604m8 0c.721.289 1.584.253 1.916-.079s-.258-.568-1.312-.525c-1.165.048-1.402.285-.604.604m119.92 1.441c.679.684 1.486.991 1.793.683.308-.308-.247-.867-1.233-1.243-1.425-.542-1.54-.428-.56.56m-53.474 4.126c-2.287 2.337-5.418 6.95-6.958 10.25-2.509 5.375-2.801 7.094-2.801 16.5 0 9.739.232 10.99 3.201 17.259 3.333 7.034 10.911 15.935 16.219 19.048 4.679 2.744 3.693 1.396-2.274-3.109-10.581-7.989-16.346-21.159-15.335-35.034.308-4.215.719-8.339.914-9.164.944-3.984 5.901-12.896 9.038-16.25 4.835-5.17 3.125-4.743-2.004.5m-64.905 1.23c.355.926.646 1.872.646 2.102s.708.418 1.573.418c2.225 0 1.359-3.389-.98-3.84-1.419-.273-1.725.054-1.239 1.32m5.459-.797c.721.289 1.584.253 1.916-.079s-.258-.568-1.312-.525c-1.165.048-1.402.285-.604.604m-.659 2.869c.191.98.951 1.984 1.692 2.23.86.287 1.22-.194 1-1.334-.191-.98-.951-1.984-1.692-2.23-.86-.287-1.22.194-1 1.334M143 66.059c0 .582.45.781 1 .441s1-.816 1-1.059-.45-.441-1-.441-1 .477-1 1.059m-17.834 4.08c.184 1.298.784 2.249 1.334 2.111 1.476-.369 1.216-3.511-.334-4.028-.915-.305-1.229.298-1 1.917M119 71.8c0 1.101.848 2.189 1.926 2.47 1.6.419 1.795.151 1.154-1.581-1.025-2.773-3.08-3.366-3.08-.889m-47.267.324c.679.684 1.486.991 1.793.683.308-.308-.247-.867-1.233-1.243-1.425-.542-1.54-.428-.56.56m135.139.626c-1.243 1.586-1.208 1.621.378.378.963-.755 1.75-1.543 1.75-1.75 0-.823-.821-.294-2.128 1.372M77.951 74.307c-18.559 5.23-27.078 24.65-18.502 42.178 8.353 17.074 32.143 20.835 45.864 7.25 6.467-6.404 8.999-12.35 9.042-21.235.038-8.012-2.129-13.895-7.279-19.761-6.48-7.38-19.491-11.147-29.125-8.432m-.768 5.595c-8.725 3.013-15.32 10.851-16.773 19.933-.68 4.253 2.143 15.559 3.652 14.627.441-.273.16-1.726-.624-3.229-1.741-3.338-1.831-8.19-.249-13.469C64.391 93.751 72.255 84 74.289 84c.607 0-.312 1.463-2.042 3.25C68.427 91.197 66 96.72 66 101.468c0 3.96.922 4.487 2.745 1.569 1.025-1.642.983-1.87-.26-1.393-.919.353-1.485-.02-1.485-.978 0-2.545 1.817-2.877 3.058-.558.951 1.778.77 2.853-1.016 6.031l-2.174 3.867 2.136 2.999c2.199 3.088 4.917 4.995 7.121 4.995.722 0 .476-.571-.578-1.342-1.757-1.285-1.738-1.411.441-2.937 2.059-1.442 2.501-1.447 4.637-.047 2.231 1.462 2.555 1.375 5.927-1.586 4.774-4.191 7.782-2.379 3.698 2.229-1.693 1.91-1.68 1.937.403.845 5.437-2.85 8.285-17.496 4.796-24.662-1.437-2.953-1.452-2.958-.95-.307.645 3.405-1.217 7.583-3.738 8.383-1.064.338-3.385.342-5.157.01-2.702-.507-3.883-.039-7.322 2.905-2.255 1.93-4.366 3.509-4.691 3.509-1.722 0-.121-3.053 3.409-6.5 2.644-2.582 4-4.789 4-6.512 0-3.362 1.468-5.085 7.012-8.232 4.148-2.354 4.733-2.445 7.25-1.127 2.885 1.512 3.516 2.945 1.58 3.59-.755.252-.247 1.939 1.462 4.856 9.564 16.32 2.073 32.168-15.089 31.918-3.143-.046-6.652-.074-7.797-.063s-3.736-1.495-5.758-3.347c-4.226-3.871-5.975-3.213-1.874.705 4.372 4.179 10.985 6.668 17.714 6.668 7.056 0 12.486-2.211 17.401-7.084 12.947-12.837 7.239-35.158-10.333-40.401-6.332-1.889-8.874-1.818-15.385.431m152.896 4.681c.048 1.165.285 1.402.604.605.289-.722.253-1.585-.079-1.917s-.568.258-.525 1.312m-80.508 2.988c-2.121 2.122-1.986 6.744.258 8.774 2.61 2.362 6.753 2.089 8.614-.568 1.5-2.14 1.557-2.041 1.557 2.685 0 5.654-4.221 15.92-4.823 11.73-.486-3.383-3.733-2.438-3.5 1.018.098 1.451-.44 2.869-1.199 3.16-.91.349-1.182.021-.802-.969.321-.834-.255-2.126-1.301-2.917-2.326-1.762-2.426-1.76-4.87.087-1.722 1.302-1.791 1.648-.5 2.534 1.12.769.868.851-1.005.328-2.423-.677-2.446-.638-.748 1.265.964 1.08 1.548 2.169 1.298 2.419-.547.547 2.183.911 9.123 1.215 3.067.135 4.934-.159 4.586-.722-.346-.56.187-.653 1.296-.227 1.036.397 1.599.437 1.25.089-.349-.349.429-2.202 1.729-4.117 3.068-4.521 3.993-10.989 2.476-17.313-1.93-8.045-9.25-12.659-13.439-8.471m38.508.012c.048 1.165.285 1.402.604.605.289-.722.253-1.585-.079-1.917s-.568.258-.525 1.312m-46.526 10.332a1.116 1.116 0 0 0 .362 1.532c.521.322 1.21.159 1.532-.362a1.116 1.116 0 0 0-.362-1.532 1.116 1.116 0 0 0-1.532.362m-104.982 2.656c-3.505 3.506-2.148 4.234 8.417 4.513l8.403.222.36-3.153.36-3.153h-7.984c-5.925 0-8.389.405-9.556 1.571m200.301 6.179c-1.243 1.586-1.208 1.621.378.378.963-.755 1.75-1.543 1.75-1.75 0-.823-.821-.294-2.128 1.372m-165.011 3.217c-1.794 1.494-1.978 1.974-.766 2 .877.018 2.41-.867 3.405-1.967 2.33-2.575.44-2.598-2.639-.033m104.483-.926c-4.464.884-11.81 4.286-12.835 5.945-.899 1.455.319 1.268 6.118-.936 2.82-1.072 7.439-2.255 10.264-2.63 4.195-.556 4.929-.932 4.001-2.051-1.25-1.506-1.531-1.518-7.548-.328M44.09 110.923c-.971.615.368 1.115 4.296 1.606 5.868.733 7.302.393 6.155-1.462-.796-1.289-8.476-1.394-10.451-.144m141.427 4.952-.67 4.874-7.674-.076c-5.413-.054-8.612.423-10.86 1.618-3.932 2.092-5.424 4.082-2.116 2.824 2.273-.864 11.715-1.569 16.998-1.268l2.694.153-2.158 5.193c-2.77 6.665-11.377 15.458-19.469 19.89-3.753 2.056-6.243 4.079-6.25 5.078-.014 2.001 7.449 5.839 11.353 5.839 5.756 0 10.64-4.267 11.258-9.835.142-1.285.995-3.46 1.896-4.834 1.637-2.498 8.559-6.268 11.586-6.309 1.193-.016 2.021-2.016 3.219-7.772 3.347-16.083 3.406-15.059-.962-16.779-2.124-.837-4.643-1.96-5.598-2.496-2.52-1.415-2.515-1.422-3.247 3.9m-63.202-2.859c-1.201.479-2.709 1.851-3.349 3.048s-.737 1.912-.212 1.588c.524-.324 2.323-.072 3.999.561 2.541.959 3.495.855 5.762-.631 2.274-1.49 2.494-1.99 1.351-3.073-1.988-1.884-5.051-2.489-7.551-1.493m42.192 7.973c-.35.566.051.734.941.393 1.732-.665 2.049-1.382.611-1.382-.518 0-1.216.445-1.552.989M94 122c-.901.582-1.025.975-.309.985.655.008 1.469-.435 1.809-.985.767-1.242.421-1.242-1.5 0m-41.943 1.148c-3.816 1.119-8.231 3.852-6.222 3.852 4.405 0 15.178-2.465 14.871-3.402-.485-1.478-4.442-1.684-8.649-.45m19.505 10.154c.896 2.334 3.603 2.961 5.33 1.235 1.317-1.317 1.327-1.539.072-1.551-.805-.007-2.483-.286-3.729-.62-1.763-.473-2.134-.265-1.673.936m-.174 3.879c-.337.546-.143 1.464.432 2.039 1.153 1.153 4.18.376 4.18-1.072 0-1.326-3.886-2.141-4.612-.967m112.716 8.354c-1.707 1.944-3.104 3.995-3.104 4.559 0 .563-.369.796-.819.518-.451-.279-.624.821-.386 2.443 1.189 8.104-9.479 13.283-19.295 9.368-1.757-.701-1.838-.599-.67.839 2.279 2.804 7.92 4.136 12.048 2.846 5.623-1.757 8.746-5.113 9.512-10.223.798-5.319 4.153-11.286 5.78-10.28.743.459.862.255.342-.585-.604-.978-.038-1.177 2.346-.828 2.176.32 3.142.054 3.142-.865 0-.797-1.157-1.327-2.896-1.327-2.064 0-3.789 1.016-6 3.535m14.471 1.343c-.298.483.855 1.158 2.564 1.5 2.775.555 2.964.808 1.767 2.372-.737.962-.958 1.428-.492 1.035.467-.393 1.66-.281 2.651.25 1.938 1.037 2.418 6.52.755 8.626-.576.729-.485 1.428.243 1.878 1.711 1.058 2.904-1.479 2.922-6.212.011-3.046-.685-5.005-2.574-7.25-2.499-2.97-6.641-4.132-7.836-2.199m-100.2 1.131c-3.249 1.275-4.208 5.465-3.189 13.937.492 4.095 1.342 7.985 1.889 8.645s.867 1.738.71 2.397c-.19.801 1.456 1.25 4.965 1.355 2.888.086 5.25-.181 5.25-.593s.493-.75 1.096-.75c1.92 0 6.904-4.079 6.904-5.65 0-1.238-1.261-1.454-6.921-1.182-7.378.354-7.786.068-2.757-1.932 1.748-.695 2.265-1.101 1.148-.901-1.116.199-2.58-.228-3.254-.949-.977-1.046-.832-1.521.719-2.351 1.292-.692 2.151-.704 2.563-.038.928 1.501 4.255 1.211 7.037-.612 3.038-1.991 3.068-2.738.215-5.433-4.746-4.485-12.717-7.377-16.375-5.943m44.216.564c-4.871 1.785-10.826 6.238-10.041 7.508a1.124 1.124 0 0 0 1.544.361c.525-.325.832.005.681.734-.168.808.894 1.467 2.725 1.692 2.625.323 2.75.47 1 1.18-1.978.803-1.977.812.05.882 1.128.038 2.551-.431 3.163-1.043 1.334-1.334 3.287-.341 3.287 1.672 0 .801-.999 1.481-2.25 1.531-1.756.071-1.547.294.951 1.016 5.348 1.547 4.521 2.538-1.739 2.085-5.707-.413-5.959-.329-6.97 2.329-.576 1.517-.81 2.995-.52 3.285s.528.017.528-.607.647-.887 1.437-.584c.802.308 1.202 1.287.906 2.219-.386 1.209-.279 1.317.387.392.743-1.031 1.531-1.019 4.111.066 1.756.738 2.924 1.61 2.597 1.938-.328.328.994-.152 2.937-1.067 4.243-1.996 4.472-2.491 5.712-12.384 1.041-8.298-.116-12.808-3.632-14.157-2.047-.786-2.166-.769-6.864.952M204.5 154c.34.55.816 1 1.059 1s.441-.45.441-1-.477-1-1.059-1-.781.45-.441 1m-83.255 1.155c-1.429 1.429-1.642 7.67-.332 9.738.485.766 2.908 1.7 5.384 2.076l4.503.684.644-4.029c.496-3.104.21-4.614-1.249-6.576-2.108-2.837-6.976-3.867-8.95-1.893M80 156.823c0 1.26 8.136 12.255 10.491 14.177 1.755 1.432 1.808 1.251 1.182-4-.361-3.025-.66-6.237-.664-7.139-.006-1.106-1.227-1.854-3.759-2.303-2.062-.366-4.537-.896-5.5-1.179-.963-.282-1.75-.083-1.75.444M22.141 165c0 .825.386 2.4.859 3.5.542 1.261.859 1.445.859.5 0-.825-.386-2.4-.859-3.5-.542-1.261-.859-1.445-.859-.5m5.938 5.583c.048 1.165.285 1.402.604.605.289-.722.253-1.585-.079-1.917s-.568.258-.525 1.312M127.5 170c-1.63.701-1.688.872-.309.93.93.038 1.969-.38 2.309-.93.711-1.15.676-1.15-2 0m-15.093 2.75c-1.659 1.512-2.282 2.188-1.383 1.5.898-.687 2.105-1.25 2.682-1.25s1.609-.675 2.294-1.5c2.101-2.532-.397-1.663-3.593 1.25m-88.328-.167c.048 1.165.285 1.402.604.605.289-.722.253-1.585-.079-1.917s-.568.258-.525 1.312m89.753 4.705c-1.833 1.534-5.283 3.359-7.667 4.057-3.768 1.102-4.129 1.44-2.761 2.575.866.719 1.282 1.818.925 2.443s-.281.803.169.396c1.119-1.015 3.637 1.213 2.836 2.509-.356.576-.164.745.429.379.593-.367 4.566 3.168 8.904 7.924 7.746 8.491 10.513 12.367 6.746 9.446-1.875-1.453-1.876-1.439-.044.711 1.028 1.206 2.153 2.157 2.5 2.114s.856.009 1.131.116c1.87.729 3.918.719 3.463-.018-.811-1.312 2.585-6.028 3.801-5.277.615.38.746.163.32-.528-.41-.662.775-3.235 2.719-5.904 1.895-2.602 4.872-7.278 6.616-10.392l3.171-5.66-2.937-.645c-1.616-.355-5.123-2.045-7.795-3.755-4.225-2.705-5.793-3.121-12.026-3.195-6.445-.075-7.505.197-10.5 2.704m34.379-1.687c-.71.769-.849 1.399-.309 1.399 1.038 0 2.541-1.902 1.948-2.466-.192-.183-.93.297-1.639 1.067M13 180.441c0 1.743 1.64 2.9 2.956 2.086 1.331-.823.133-3.527-1.563-3.527-.766 0-1.393.648-1.393 1.441m113.153-.194c-1.634 1.634-1.429 4.71.36 5.396 1.763.677 4.487-1.284 4.487-3.23 0-2.028-3.445-3.568-4.847-2.166m-107.965 2.816c.24.721 1.028 1.509 1.75 1.75.75.25 1.125-.125.875-.875-.241-.722-1.029-1.51-1.75-1.75-.75-.25-1.125.125-.875.875m12.078 2.618c.082 1.199.467 1.984.856 1.743s.935.129 1.214.82.542.78.585.197c.043-.582-.57-1.932-1.363-3-1.407-1.893-1.438-1.888-1.292.24m122.298 5.026c-.542 1.425-.428 1.54.56.56.684-.679.991-1.486.683-1.793-.308-.308-.867.247-1.243 1.233M37 190.882c0 .55.45 1.278 1 1.618s1 .168 1-.382-.45-1.278-1-1.618-1-.168-1 .382m89.389 1.548c-.996 2.595.399 4.739 2.857 4.39 1.652-.235 2.254-.987 2.254-2.82s-.602-2.585-2.254-2.82c-1.353-.192-2.496.308-2.857 1.25M40 192.924c0 .474.675 1.121 1.5 1.438s1.5.187 1.5-.286c0-.474-.675-1.121-1.5-1.438s-1.5-.187-1.5.286M47 196c0 .55.423 1 .941 1s1.219-.45 1.559-1-.084-1-.941-1-1.559.45-1.559 1m105 32c0 .55.45 1 1 1s1-.45 1-1-.45-1-1-1-1 .45-1 1m-59 5.059c0 .582.45.781 1 .441s1-.816 1-1.059-.45-.441-1-.441-1 .477-1 1.059m59-.059c0 .55.45 1 1 1s1-.45 1-1-.45-1-1-1-1 .45-1 1m2.606 10.416c.335.871 1.047 1.584 1.584 1.584 1.315 0 .492-2.273-1.003-2.771-.731-.244-.954.214-.581 1.187"/></svg>